<mxfile host="app.diagrams.net" modified="2023-04-24T08:44:30.323Z" agent="Mozilla/5.0 (Macintosh; Intel Mac OS X 10_15_7) AppleWebKit/537.36 (KHTML, like Gecko) Chrome/112.0.0.0 Safari/537.36" etag="vL6Ioxn3CwCjYDSm7Zq-" version="21.1.6" type="device" pages="2">
  <diagram name="Page-1" id="0SC2XsO1XCHTR90pyxxA">
    <mxGraphModel dx="1434" dy="758" grid="1" gridSize="10" guides="1" tooltips="1" connect="1" arrows="1" fold="1" page="1" pageScale="1" pageWidth="1200" pageHeight="1250" math="0" shadow="0">
      <root>
        <mxCell id="0" />
        <mxCell id="1" parent="0" />
        <mxCell id="Zx91uQ-LiGVZXYL8dxc4-5" value="" style="rounded=0;whiteSpace=wrap;html=1;" vertex="1" parent="1">
          <mxGeometry x="800" y="10" width="340" height="630" as="geometry" />
        </mxCell>
        <mxCell id="zKJ1avxTrPC6M9d2qa7q-4" value="" style="edgeStyle=orthogonalEdgeStyle;rounded=0;orthogonalLoop=1;jettySize=auto;html=1;strokeColor=default;" edge="1" parent="1" source="zKJ1avxTrPC6M9d2qa7q-1" target="zKJ1avxTrPC6M9d2qa7q-3">
          <mxGeometry relative="1" as="geometry" />
        </mxCell>
        <mxCell id="zKJ1avxTrPC6M9d2qa7q-1" value="Run application" style="rounded=1;whiteSpace=wrap;html=1;" vertex="1" parent="1">
          <mxGeometry x="20" y="20" width="120" height="60" as="geometry" />
        </mxCell>
        <mxCell id="zKJ1avxTrPC6M9d2qa7q-7" value="Yes" style="edgeStyle=orthogonalEdgeStyle;rounded=0;orthogonalLoop=1;jettySize=auto;html=1;strokeColor=default;" edge="1" parent="1" source="zKJ1avxTrPC6M9d2qa7q-2" target="zKJ1avxTrPC6M9d2qa7q-6">
          <mxGeometry relative="1" as="geometry" />
        </mxCell>
        <mxCell id="zKJ1avxTrPC6M9d2qa7q-9" value="No" style="edgeStyle=orthogonalEdgeStyle;rounded=0;orthogonalLoop=1;jettySize=auto;html=1;strokeColor=default;" edge="1" parent="1" source="zKJ1avxTrPC6M9d2qa7q-2" target="zKJ1avxTrPC6M9d2qa7q-8">
          <mxGeometry relative="1" as="geometry" />
        </mxCell>
        <mxCell id="zKJ1avxTrPC6M9d2qa7q-2" value="&lt;font style=&quot;font-size: 10px;&quot;&gt;Does user have existing account?&lt;/font&gt;" style="rhombus;whiteSpace=wrap;html=1;spacingLeft=6;spacingBottom=6;spacingRight=6;spacingTop=6;fontSize=10;strokeColor=#6c8ebf;fillColor=#dae8fc;" vertex="1" parent="1">
          <mxGeometry x="232" y="140" width="80" height="80" as="geometry" />
        </mxCell>
        <mxCell id="zKJ1avxTrPC6M9d2qa7q-5" value="" style="edgeStyle=orthogonalEdgeStyle;rounded=0;orthogonalLoop=1;jettySize=auto;html=1;strokeColor=default;" edge="1" parent="1" source="zKJ1avxTrPC6M9d2qa7q-3" target="zKJ1avxTrPC6M9d2qa7q-2">
          <mxGeometry relative="1" as="geometry" />
        </mxCell>
        <mxCell id="zKJ1avxTrPC6M9d2qa7q-47" style="edgeStyle=orthogonalEdgeStyle;rounded=0;orthogonalLoop=1;jettySize=auto;html=1;exitX=0.25;exitY=1;exitDx=0;exitDy=0;entryX=0.5;entryY=0;entryDx=0;entryDy=0;fillColor=#f8cecc;strokeColor=#b85450;" edge="1" parent="1" source="zKJ1avxTrPC6M9d2qa7q-3" target="zKJ1avxTrPC6M9d2qa7q-46">
          <mxGeometry relative="1" as="geometry" />
        </mxCell>
        <mxCell id="zKJ1avxTrPC6M9d2qa7q-3" value="User prompted to enter email address" style="shape=parallelogram;perimeter=parallelogramPerimeter;whiteSpace=wrap;html=1;fixedSize=1;spacingTop=6;spacing=2;spacingLeft=6;spacingBottom=6;spacingRight=6;fontSize=9;strokeColor=#6c8ebf;fillColor=#dae8fc;" vertex="1" parent="1">
          <mxGeometry x="212" y="20" width="120" height="60" as="geometry" />
        </mxCell>
        <mxCell id="zKJ1avxTrPC6M9d2qa7q-18" value="" style="edgeStyle=orthogonalEdgeStyle;rounded=0;orthogonalLoop=1;jettySize=auto;html=1;strokeColor=default;" edge="1" parent="1" source="zKJ1avxTrPC6M9d2qa7q-6" target="zKJ1avxTrPC6M9d2qa7q-17">
          <mxGeometry relative="1" as="geometry" />
        </mxCell>
        <mxCell id="zKJ1avxTrPC6M9d2qa7q-48" style="edgeStyle=orthogonalEdgeStyle;rounded=0;orthogonalLoop=1;jettySize=auto;html=1;exitX=0.5;exitY=1;exitDx=0;exitDy=0;entryX=0.75;entryY=1;entryDx=0;entryDy=0;fillColor=#f8cecc;strokeColor=#b85450;" edge="1" parent="1" source="zKJ1avxTrPC6M9d2qa7q-6" target="zKJ1avxTrPC6M9d2qa7q-46">
          <mxGeometry relative="1" as="geometry" />
        </mxCell>
        <mxCell id="zKJ1avxTrPC6M9d2qa7q-6" value="User prompted to enter password" style="shape=parallelogram;perimeter=parallelogramPerimeter;whiteSpace=wrap;html=1;fixedSize=1;fontSize=9;spacingLeft=6;spacingBottom=6;spacingRight=6;spacingTop=6;strokeColor=#6c8ebf;fillColor=#dae8fc;" vertex="1" parent="1">
          <mxGeometry x="410" y="150" width="120" height="60" as="geometry" />
        </mxCell>
        <mxCell id="zKJ1avxTrPC6M9d2qa7q-11" value="" style="edgeStyle=orthogonalEdgeStyle;rounded=0;orthogonalLoop=1;jettySize=auto;html=1;strokeColor=default;" edge="1" parent="1" source="zKJ1avxTrPC6M9d2qa7q-8" target="zKJ1avxTrPC6M9d2qa7q-10">
          <mxGeometry relative="1" as="geometry" />
        </mxCell>
        <mxCell id="zKJ1avxTrPC6M9d2qa7q-50" style="edgeStyle=orthogonalEdgeStyle;rounded=0;orthogonalLoop=1;jettySize=auto;html=1;exitX=0.25;exitY=0;exitDx=0;exitDy=0;entryX=1;entryY=0.75;entryDx=0;entryDy=0;fillColor=#f8cecc;strokeColor=#b85450;" edge="1" parent="1" source="zKJ1avxTrPC6M9d2qa7q-8" target="zKJ1avxTrPC6M9d2qa7q-46">
          <mxGeometry relative="1" as="geometry" />
        </mxCell>
        <mxCell id="zKJ1avxTrPC6M9d2qa7q-8" value="User prompted to set new password" style="shape=parallelogram;perimeter=parallelogramPerimeter;whiteSpace=wrap;html=1;fixedSize=1;fontSize=10;spacingLeft=6;spacingBottom=6;spacingRight=6;spacingTop=6;strokeColor=#6c8ebf;fillColor=#dae8fc;" vertex="1" parent="1">
          <mxGeometry x="212" y="301" width="120" height="60" as="geometry" />
        </mxCell>
        <mxCell id="zKJ1avxTrPC6M9d2qa7q-13" value="No" style="edgeStyle=orthogonalEdgeStyle;rounded=0;orthogonalLoop=1;jettySize=auto;html=1;strokeColor=default;" edge="1" parent="1" source="zKJ1avxTrPC6M9d2qa7q-10" target="zKJ1avxTrPC6M9d2qa7q-12">
          <mxGeometry relative="1" as="geometry" />
        </mxCell>
        <mxCell id="zKJ1avxTrPC6M9d2qa7q-16" value="Yes" style="edgeStyle=orthogonalEdgeStyle;rounded=0;orthogonalLoop=1;jettySize=auto;html=1;strokeColor=default;entryX=0;entryY=0.388;entryDx=0;entryDy=0;entryPerimeter=0;" edge="1" parent="1" source="zKJ1avxTrPC6M9d2qa7q-10" target="TVNj_L7l5D1jtbkQHfFh-1">
          <mxGeometry relative="1" as="geometry">
            <mxPoint x="410" y="479" as="targetPoint" />
          </mxGeometry>
        </mxCell>
        <mxCell id="zKJ1avxTrPC6M9d2qa7q-10" value="Is password in a valid format?" style="rhombus;whiteSpace=wrap;html=1;fontSize=9;spacingLeft=6;spacingBottom=6;spacingRight=6;spacingTop=6;strokeColor=#6c8ebf;fillColor=#dae8fc;" vertex="1" parent="1">
          <mxGeometry x="232" y="439" width="80" height="80" as="geometry" />
        </mxCell>
        <mxCell id="zKJ1avxTrPC6M9d2qa7q-14" style="edgeStyle=orthogonalEdgeStyle;rounded=0;orthogonalLoop=1;jettySize=auto;html=1;entryX=0;entryY=0.5;entryDx=0;entryDy=0;strokeColor=default;" edge="1" parent="1" source="zKJ1avxTrPC6M9d2qa7q-12" target="zKJ1avxTrPC6M9d2qa7q-8">
          <mxGeometry relative="1" as="geometry">
            <Array as="points">
              <mxPoint x="122" y="331" />
            </Array>
          </mxGeometry>
        </mxCell>
        <mxCell id="zKJ1avxTrPC6M9d2qa7q-12" value="Display message that password format is invalid, asked to try again" style="whiteSpace=wrap;html=1;fontSize=9;spacingLeft=6;spacingBottom=6;spacingRight=6;spacingTop=6;strokeColor=#6c8ebf;fillColor=#dae8fc;" vertex="1" parent="1">
          <mxGeometry x="52" y="449" width="120" height="60" as="geometry" />
        </mxCell>
        <mxCell id="zKJ1avxTrPC6M9d2qa7q-23" value="" style="edgeStyle=orthogonalEdgeStyle;rounded=0;orthogonalLoop=1;jettySize=auto;html=1;strokeColor=default;exitX=0.492;exitY=0.875;exitDx=0;exitDy=0;exitPerimeter=0;" edge="1" parent="1" source="TVNj_L7l5D1jtbkQHfFh-1" target="zKJ1avxTrPC6M9d2qa7q-22">
          <mxGeometry relative="1" as="geometry">
            <mxPoint x="470" y="509" as="sourcePoint" />
          </mxGeometry>
        </mxCell>
        <mxCell id="zKJ1avxTrPC6M9d2qa7q-20" value="No" style="edgeStyle=orthogonalEdgeStyle;rounded=0;orthogonalLoop=1;jettySize=auto;html=1;strokeColor=default;" edge="1" parent="1" source="zKJ1avxTrPC6M9d2qa7q-17" target="zKJ1avxTrPC6M9d2qa7q-19">
          <mxGeometry relative="1" as="geometry" />
        </mxCell>
        <mxCell id="zKJ1avxTrPC6M9d2qa7q-25" value="Yes" style="edgeStyle=orthogonalEdgeStyle;rounded=0;orthogonalLoop=1;jettySize=auto;html=1;strokeColor=default;" edge="1" parent="1" source="zKJ1avxTrPC6M9d2qa7q-17" target="zKJ1avxTrPC6M9d2qa7q-24">
          <mxGeometry relative="1" as="geometry" />
        </mxCell>
        <mxCell id="zKJ1avxTrPC6M9d2qa7q-17" value="Is this password correct?" style="rhombus;whiteSpace=wrap;html=1;fontSize=9;spacingLeft=6;spacingBottom=6;spacingRight=6;spacingTop=6;strokeColor=#6c8ebf;fillColor=#dae8fc;" vertex="1" parent="1">
          <mxGeometry x="630" y="140" width="80" height="80" as="geometry" />
        </mxCell>
        <mxCell id="zKJ1avxTrPC6M9d2qa7q-21" style="edgeStyle=orthogonalEdgeStyle;rounded=0;orthogonalLoop=1;jettySize=auto;html=1;exitX=0;exitY=0.5;exitDx=0;exitDy=0;entryX=0.583;entryY=0;entryDx=0;entryDy=0;entryPerimeter=0;strokeColor=default;" edge="1" parent="1" source="zKJ1avxTrPC6M9d2qa7q-19" target="zKJ1avxTrPC6M9d2qa7q-6">
          <mxGeometry relative="1" as="geometry" />
        </mxCell>
        <mxCell id="zKJ1avxTrPC6M9d2qa7q-19" value="Display message that password is incorrect, ask user to try again" style="whiteSpace=wrap;html=1;fontSize=9;spacingLeft=6;spacingBottom=6;spacingRight=6;spacingTop=6;strokeColor=#6c8ebf;fillColor=#dae8fc;" vertex="1" parent="1">
          <mxGeometry x="610" y="20" width="120" height="60" as="geometry" />
        </mxCell>
        <mxCell id="zKJ1avxTrPC6M9d2qa7q-42" style="edgeStyle=orthogonalEdgeStyle;rounded=0;orthogonalLoop=1;jettySize=auto;html=1;exitX=1;exitY=0.5;exitDx=0;exitDy=0;entryX=0;entryY=0.5;entryDx=0;entryDy=0;" edge="1" parent="1" source="zKJ1avxTrPC6M9d2qa7q-22" target="zKJ1avxTrPC6M9d2qa7q-26">
          <mxGeometry relative="1" as="geometry" />
        </mxCell>
        <mxCell id="zKJ1avxTrPC6M9d2qa7q-22" value="Display message that new account creation was successful and that the user is now logged in" style="whiteSpace=wrap;html=1;fontSize=9;spacingLeft=6;spacingBottom=6;spacingRight=6;spacingTop=6;strokeColor=#6c8ebf;fillColor=#dae8fc;" vertex="1" parent="1">
          <mxGeometry x="390" y="560" width="120" height="60" as="geometry" />
        </mxCell>
        <mxCell id="zKJ1avxTrPC6M9d2qa7q-27" value="" style="edgeStyle=orthogonalEdgeStyle;rounded=0;orthogonalLoop=1;jettySize=auto;html=1;" edge="1" parent="1" source="zKJ1avxTrPC6M9d2qa7q-24" target="zKJ1avxTrPC6M9d2qa7q-26">
          <mxGeometry relative="1" as="geometry" />
        </mxCell>
        <mxCell id="zKJ1avxTrPC6M9d2qa7q-24" value="Display message that login was successful" style="whiteSpace=wrap;html=1;fontSize=9;spacingLeft=6;spacingBottom=6;spacingRight=6;spacingTop=6;strokeColor=#6c8ebf;fillColor=#dae8fc;" vertex="1" parent="1">
          <mxGeometry x="610" y="320" width="120" height="60" as="geometry" />
        </mxCell>
        <mxCell id="zKJ1avxTrPC6M9d2qa7q-32" value="" style="edgeStyle=orthogonalEdgeStyle;rounded=0;orthogonalLoop=1;jettySize=auto;html=1;" edge="1" parent="1" source="zKJ1avxTrPC6M9d2qa7q-26" target="zKJ1avxTrPC6M9d2qa7q-31">
          <mxGeometry relative="1" as="geometry" />
        </mxCell>
        <mxCell id="zKJ1avxTrPC6M9d2qa7q-26" value="Display main menu to user" style="whiteSpace=wrap;html=1;fontSize=9;fillColor=#e1d5e7;strokeColor=#9673a6;spacingLeft=6;spacingBottom=6;spacingRight=6;spacingTop=6;fontStyle=1" vertex="1" parent="1">
          <mxGeometry x="610" y="636" width="120" height="60" as="geometry" />
        </mxCell>
        <mxCell id="zKJ1avxTrPC6M9d2qa7q-37" value="" style="edgeStyle=orthogonalEdgeStyle;rounded=0;orthogonalLoop=1;jettySize=auto;html=1;" edge="1" parent="1" source="zKJ1avxTrPC6M9d2qa7q-31" target="zKJ1avxTrPC6M9d2qa7q-33">
          <mxGeometry relative="1" as="geometry" />
        </mxCell>
        <mxCell id="zKJ1avxTrPC6M9d2qa7q-31" value="User selects option from main menu" style="shape=parallelogram;perimeter=parallelogramPerimeter;whiteSpace=wrap;html=1;fixedSize=1;fontSize=9;fillColor=#e1d5e7;strokeColor=#9673a6;spacingLeft=6;spacingBottom=6;spacingRight=6;spacingTop=6;" vertex="1" parent="1">
          <mxGeometry x="663" y="759" width="120" height="60" as="geometry" />
        </mxCell>
        <mxCell id="aBdS041nlQMWMxgXmaI8-2" value="Yes" style="edgeStyle=orthogonalEdgeStyle;rounded=0;orthogonalLoop=1;jettySize=auto;html=1;" edge="1" parent="1" source="zKJ1avxTrPC6M9d2qa7q-33" target="aBdS041nlQMWMxgXmaI8-1">
          <mxGeometry relative="1" as="geometry" />
        </mxCell>
        <mxCell id="yBEaBisVSus7Nq-yGn51-2" value="No" style="edgeStyle=orthogonalEdgeStyle;rounded=0;orthogonalLoop=1;jettySize=auto;html=1;" edge="1" parent="1" source="zKJ1avxTrPC6M9d2qa7q-33" target="yBEaBisVSus7Nq-yGn51-1">
          <mxGeometry relative="1" as="geometry" />
        </mxCell>
        <mxCell id="zKJ1avxTrPC6M9d2qa7q-33" value="Option 1 selected?" style="rhombus;whiteSpace=wrap;html=1;fillColor=#e1d5e7;strokeColor=#9673a6;" vertex="1" parent="1">
          <mxGeometry x="550" y="749" width="80" height="80" as="geometry" />
        </mxCell>
        <mxCell id="zKJ1avxTrPC6M9d2qa7q-39" value="No" style="edgeStyle=orthogonalEdgeStyle;rounded=0;orthogonalLoop=1;jettySize=auto;html=1;" edge="1" parent="1" source="zKJ1avxTrPC6M9d2qa7q-35" target="zKJ1avxTrPC6M9d2qa7q-38">
          <mxGeometry relative="1" as="geometry" />
        </mxCell>
        <mxCell id="B2B5dfJSyxNBqkWhFuWf-4" value="Yes" style="edgeStyle=orthogonalEdgeStyle;rounded=0;orthogonalLoop=1;jettySize=auto;html=1;" edge="1" parent="1" source="zKJ1avxTrPC6M9d2qa7q-35" target="B2B5dfJSyxNBqkWhFuWf-3">
          <mxGeometry relative="1" as="geometry" />
        </mxCell>
        <mxCell id="zKJ1avxTrPC6M9d2qa7q-35" value="Option 3 selected?" style="rhombus;whiteSpace=wrap;html=1;fillColor=#e1d5e7;strokeColor=#9673a6;" vertex="1" parent="1">
          <mxGeometry x="280" y="749" width="80" height="80" as="geometry" />
        </mxCell>
        <mxCell id="zKJ1avxTrPC6M9d2qa7q-44" value="No" style="edgeStyle=orthogonalEdgeStyle;rounded=0;orthogonalLoop=1;jettySize=auto;html=1;" edge="1" parent="1" source="zKJ1avxTrPC6M9d2qa7q-38" target="zKJ1avxTrPC6M9d2qa7q-43">
          <mxGeometry relative="1" as="geometry" />
        </mxCell>
        <mxCell id="zKJ1avxTrPC6M9d2qa7q-52" style="edgeStyle=orthogonalEdgeStyle;rounded=0;orthogonalLoop=1;jettySize=auto;html=1;exitX=0;exitY=0.5;exitDx=0;exitDy=0;entryX=0.5;entryY=0;entryDx=0;entryDy=0;fillColor=#f8cecc;strokeColor=#b85450;" edge="1" parent="1" source="zKJ1avxTrPC6M9d2qa7q-38" target="zKJ1avxTrPC6M9d2qa7q-51">
          <mxGeometry relative="1" as="geometry" />
        </mxCell>
        <mxCell id="zKJ1avxTrPC6M9d2qa7q-53" value="Yes" style="edgeLabel;html=1;align=center;verticalAlign=middle;resizable=0;points=[];" vertex="1" connectable="0" parent="zKJ1avxTrPC6M9d2qa7q-52">
          <mxGeometry x="-0.6964" y="-4" relative="1" as="geometry">
            <mxPoint as="offset" />
          </mxGeometry>
        </mxCell>
        <mxCell id="zKJ1avxTrPC6M9d2qa7q-38" value="Option 4 selected?" style="rhombus;whiteSpace=wrap;html=1;fillColor=#e1d5e7;strokeColor=#9673a6;" vertex="1" parent="1">
          <mxGeometry x="120" y="749" width="80" height="80" as="geometry" />
        </mxCell>
        <mxCell id="zKJ1avxTrPC6M9d2qa7q-45" style="edgeStyle=orthogonalEdgeStyle;rounded=0;orthogonalLoop=1;jettySize=auto;html=1;" edge="1" parent="1" source="zKJ1avxTrPC6M9d2qa7q-43" target="zKJ1avxTrPC6M9d2qa7q-26">
          <mxGeometry relative="1" as="geometry" />
        </mxCell>
        <mxCell id="zKJ1avxTrPC6M9d2qa7q-43" value="Invalid option selected, please try again" style="whiteSpace=wrap;html=1;fillColor=#e1d5e7;strokeColor=#9673a6;" vertex="1" parent="1">
          <mxGeometry x="100" y="636" width="120" height="60" as="geometry" />
        </mxCell>
        <mxCell id="zKJ1avxTrPC6M9d2qa7q-54" style="edgeStyle=orthogonalEdgeStyle;rounded=0;orthogonalLoop=1;jettySize=auto;html=1;exitX=0.25;exitY=1;exitDx=0;exitDy=0;entryX=0.25;entryY=0;entryDx=0;entryDy=0;fillColor=#f8cecc;strokeColor=#b85450;" edge="1" parent="1" source="zKJ1avxTrPC6M9d2qa7q-46" target="zKJ1avxTrPC6M9d2qa7q-51">
          <mxGeometry relative="1" as="geometry" />
        </mxCell>
        <mxCell id="zKJ1avxTrPC6M9d2qa7q-46" value="User enters quit prompt" style="rounded=0;whiteSpace=wrap;html=1;fillColor=#f8cecc;strokeColor=#b85450;" vertex="1" parent="1">
          <mxGeometry x="10" y="190" width="120" height="60" as="geometry" />
        </mxCell>
        <mxCell id="zKJ1avxTrPC6M9d2qa7q-51" value="Thank you message displayed, application exits gracefully" style="rounded=1;whiteSpace=wrap;html=1;fillColor=#f8cecc;strokeColor=#b85450;" vertex="1" parent="1">
          <mxGeometry x="10" y="880" width="120" height="60" as="geometry" />
        </mxCell>
        <mxCell id="aBdS041nlQMWMxgXmaI8-1" value="See Page 2" style="whiteSpace=wrap;html=1;fillColor=#d5e8d4;strokeColor=#82b366;" vertex="1" parent="1">
          <mxGeometry x="550" y="880" width="80" height="60" as="geometry" />
        </mxCell>
        <mxCell id="TVNj_L7l5D1jtbkQHfFh-1" value="New user registration added to spreadsheet of registered users and user ID generated" style="shape=document;whiteSpace=wrap;html=1;boundedLbl=1;fillColor=#dae8fc;strokeColor=#6c8ebf;spacingTop=6;spacingLeft=6;spacingRight=6;fontSize=10;spacingBottom=6;" vertex="1" parent="1">
          <mxGeometry x="390" y="449" width="120" height="80" as="geometry" />
        </mxCell>
        <mxCell id="yBEaBisVSus7Nq-yGn51-3" value="No" style="edgeStyle=orthogonalEdgeStyle;rounded=0;orthogonalLoop=1;jettySize=auto;html=1;" edge="1" parent="1" source="yBEaBisVSus7Nq-yGn51-1" target="zKJ1avxTrPC6M9d2qa7q-35">
          <mxGeometry relative="1" as="geometry" />
        </mxCell>
        <mxCell id="B2B5dfJSyxNBqkWhFuWf-2" value="Yes" style="edgeStyle=orthogonalEdgeStyle;rounded=0;orthogonalLoop=1;jettySize=auto;html=1;" edge="1" parent="1" source="yBEaBisVSus7Nq-yGn51-1" target="B2B5dfJSyxNBqkWhFuWf-1">
          <mxGeometry relative="1" as="geometry" />
        </mxCell>
        <mxCell id="yBEaBisVSus7Nq-yGn51-1" value="Option 2 selected?" style="rhombus;whiteSpace=wrap;html=1;fillColor=#e1d5e7;strokeColor=#9673a6;" vertex="1" parent="1">
          <mxGeometry x="420" y="749" width="80" height="80" as="geometry" />
        </mxCell>
        <mxCell id="B2B5dfJSyxNBqkWhFuWf-13" value="No" style="edgeStyle=orthogonalEdgeStyle;rounded=0;orthogonalLoop=1;jettySize=auto;html=1;" edge="1" parent="1" source="B2B5dfJSyxNBqkWhFuWf-1" target="B2B5dfJSyxNBqkWhFuWf-12">
          <mxGeometry relative="1" as="geometry" />
        </mxCell>
        <mxCell id="B2B5dfJSyxNBqkWhFuWf-16" value="Yes" style="edgeStyle=orthogonalEdgeStyle;rounded=0;orthogonalLoop=1;jettySize=auto;html=1;" edge="1" parent="1" source="B2B5dfJSyxNBqkWhFuWf-1" target="B2B5dfJSyxNBqkWhFuWf-14">
          <mxGeometry relative="1" as="geometry" />
        </mxCell>
        <mxCell id="B2B5dfJSyxNBqkWhFuWf-1" value="Does Previous Results exist for this user?" style="rhombus;whiteSpace=wrap;html=1;fillColor=#ffe6cc;strokeColor=#d79b00;fontSize=9;spacingTop=6;spacingLeft=6;spacingBottom=6;spacingRight=6;" vertex="1" parent="1">
          <mxGeometry x="420" y="960" width="80" height="80" as="geometry" />
        </mxCell>
        <mxCell id="B2B5dfJSyxNBqkWhFuWf-6" value="" style="edgeStyle=orthogonalEdgeStyle;rounded=0;orthogonalLoop=1;jettySize=auto;html=1;exitX=0.35;exitY=0.988;exitDx=0;exitDy=0;exitPerimeter=0;" edge="1" parent="1" source="B2B5dfJSyxNBqkWhFuWf-3" target="B2B5dfJSyxNBqkWhFuWf-5">
          <mxGeometry relative="1" as="geometry">
            <Array as="points">
              <mxPoint x="320" y="959" />
            </Array>
          </mxGeometry>
        </mxCell>
        <mxCell id="B2B5dfJSyxNBqkWhFuWf-3" value="Display Certified Players" style="shape=document;whiteSpace=wrap;html=1;boundedLbl=1;fillColor=#fff2cc;strokeColor=#d6b656;" vertex="1" parent="1">
          <mxGeometry x="260" y="880" width="120" height="80" as="geometry" />
        </mxCell>
        <mxCell id="B2B5dfJSyxNBqkWhFuWf-8" value="" style="edgeStyle=orthogonalEdgeStyle;rounded=0;orthogonalLoop=1;jettySize=auto;html=1;" edge="1" parent="1" source="B2B5dfJSyxNBqkWhFuWf-5" target="B2B5dfJSyxNBqkWhFuWf-7">
          <mxGeometry relative="1" as="geometry" />
        </mxCell>
        <mxCell id="B2B5dfJSyxNBqkWhFuWf-5" value="Ask user if they want to return to main menu" style="shape=parallelogram;perimeter=parallelogramPerimeter;whiteSpace=wrap;html=1;fixedSize=1;fillColor=#fff2cc;strokeColor=#d6b656;fontSize=9;" vertex="1" parent="1">
          <mxGeometry x="260" y="1050" width="120" height="60" as="geometry" />
        </mxCell>
        <mxCell id="B2B5dfJSyxNBqkWhFuWf-10" value="No" style="edgeStyle=orthogonalEdgeStyle;rounded=0;orthogonalLoop=1;jettySize=auto;html=1;exitX=0;exitY=0.5;exitDx=0;exitDy=0;fillColor=#f8cecc;strokeColor=#b85450;" edge="1" parent="1" source="B2B5dfJSyxNBqkWhFuWf-7" target="zKJ1avxTrPC6M9d2qa7q-51">
          <mxGeometry x="-0.5" relative="1" as="geometry">
            <mxPoint as="offset" />
          </mxGeometry>
        </mxCell>
        <mxCell id="B2B5dfJSyxNBqkWhFuWf-11" value="Yes" style="edgeStyle=orthogonalEdgeStyle;rounded=0;orthogonalLoop=1;jettySize=auto;html=1;entryX=1;entryY=0.75;entryDx=0;entryDy=0;" edge="1" parent="1" source="B2B5dfJSyxNBqkWhFuWf-7" target="zKJ1avxTrPC6M9d2qa7q-26">
          <mxGeometry x="-0.9523" relative="1" as="geometry">
            <Array as="points">
              <mxPoint x="130" y="1170" />
              <mxPoint x="790" y="1170" />
              <mxPoint x="790" y="681" />
            </Array>
            <mxPoint as="offset" />
          </mxGeometry>
        </mxCell>
        <mxCell id="B2B5dfJSyxNBqkWhFuWf-7" value="Return to main menu?" style="rhombus;whiteSpace=wrap;html=1;fontSize=9;fillColor=#fff2cc;strokeColor=#d6b656;" vertex="1" parent="1">
          <mxGeometry x="90" y="1040" width="80" height="80" as="geometry" />
        </mxCell>
        <mxCell id="B2B5dfJSyxNBqkWhFuWf-18" style="edgeStyle=orthogonalEdgeStyle;rounded=0;orthogonalLoop=1;jettySize=auto;html=1;" edge="1" parent="1" source="B2B5dfJSyxNBqkWhFuWf-12" target="B2B5dfJSyxNBqkWhFuWf-17">
          <mxGeometry relative="1" as="geometry" />
        </mxCell>
        <mxCell id="B2B5dfJSyxNBqkWhFuWf-12" value="Display message that no previous results exist" style="whiteSpace=wrap;html=1;fontSize=9;fillColor=#ffe6cc;strokeColor=#d79b00;spacingTop=6;spacingLeft=6;spacingBottom=6;spacingRight=6;" vertex="1" parent="1">
          <mxGeometry x="400" y="1080" width="120" height="60" as="geometry" />
        </mxCell>
        <mxCell id="B2B5dfJSyxNBqkWhFuWf-19" value="" style="edgeStyle=orthogonalEdgeStyle;rounded=0;orthogonalLoop=1;jettySize=auto;html=1;" edge="1" parent="1" source="B2B5dfJSyxNBqkWhFuWf-14" target="B2B5dfJSyxNBqkWhFuWf-17">
          <mxGeometry relative="1" as="geometry" />
        </mxCell>
        <mxCell id="B2B5dfJSyxNBqkWhFuWf-14" value="Display Previous Results" style="shape=document;whiteSpace=wrap;html=1;boundedLbl=1;fillColor=#ffe6cc;strokeColor=#d79b00;" vertex="1" parent="1">
          <mxGeometry x="650" y="960" width="120" height="80" as="geometry" />
        </mxCell>
        <mxCell id="B2B5dfJSyxNBqkWhFuWf-21" value="" style="edgeStyle=orthogonalEdgeStyle;rounded=0;orthogonalLoop=1;jettySize=auto;html=1;" edge="1" parent="1" source="B2B5dfJSyxNBqkWhFuWf-17" target="B2B5dfJSyxNBqkWhFuWf-20">
          <mxGeometry relative="1" as="geometry" />
        </mxCell>
        <mxCell id="B2B5dfJSyxNBqkWhFuWf-17" value="Ask user if they want to return to main menu" style="shape=parallelogram;perimeter=parallelogramPerimeter;whiteSpace=wrap;html=1;fixedSize=1;fillColor=#ffe6cc;strokeColor=#d79b00;fontSize=9;" vertex="1" parent="1">
          <mxGeometry x="650" y="1080" width="120" height="60" as="geometry" />
        </mxCell>
        <mxCell id="B2B5dfJSyxNBqkWhFuWf-23" value="Yes" style="edgeStyle=orthogonalEdgeStyle;rounded=0;orthogonalLoop=1;jettySize=auto;html=1;" edge="1" parent="1" source="B2B5dfJSyxNBqkWhFuWf-20">
          <mxGeometry x="-0.9298" relative="1" as="geometry">
            <mxPoint x="730" y="680" as="targetPoint" />
            <Array as="points">
              <mxPoint x="910" y="900" />
              <mxPoint x="790" y="900" />
              <mxPoint x="790" y="680" />
            </Array>
            <mxPoint as="offset" />
          </mxGeometry>
        </mxCell>
        <mxCell id="B2B5dfJSyxNBqkWhFuWf-24" value="No" style="edgeStyle=orthogonalEdgeStyle;rounded=0;orthogonalLoop=1;jettySize=auto;html=1;exitX=0.5;exitY=1;exitDx=0;exitDy=0;entryX=0.5;entryY=1;entryDx=0;entryDy=0;fillColor=#f8cecc;strokeColor=#b85450;" edge="1" parent="1" source="B2B5dfJSyxNBqkWhFuWf-20">
          <mxGeometry x="-0.9652" relative="1" as="geometry">
            <mxPoint x="878" y="1150" as="sourcePoint" />
            <mxPoint x="38" y="940" as="targetPoint" />
            <Array as="points">
              <mxPoint x="910" y="1200" />
              <mxPoint x="38" y="1200" />
            </Array>
            <mxPoint as="offset" />
          </mxGeometry>
        </mxCell>
        <mxCell id="B2B5dfJSyxNBqkWhFuWf-20" value="Return to main menu?" style="rhombus;whiteSpace=wrap;html=1;fontSize=9;fillColor=#ffe6cc;strokeColor=#d79b00;" vertex="1" parent="1">
          <mxGeometry x="870" y="1070" width="80" height="80" as="geometry" />
        </mxCell>
        <mxCell id="h-7I3PyZhxbUlpf5mPL_-2" style="edgeStyle=orthogonalEdgeStyle;rounded=0;orthogonalLoop=1;jettySize=auto;html=1;exitX=0.5;exitY=1;exitDx=0;exitDy=0;" edge="1" parent="1">
          <mxGeometry relative="1" as="geometry">
            <mxPoint x="905" y="130" as="sourcePoint" />
            <mxPoint x="905" y="130" as="targetPoint" />
          </mxGeometry>
        </mxCell>
        <mxCell id="h-7I3PyZhxbUlpf5mPL_-4" value="&lt;u&gt;&lt;b&gt;&lt;font style=&quot;font-size: 30px;&quot;&gt;Key&lt;/font&gt;&lt;/b&gt;&lt;/u&gt;" style="text;html=1;strokeColor=none;fillColor=none;align=center;verticalAlign=middle;whiteSpace=wrap;rounded=0;" vertex="1" parent="1">
          <mxGeometry x="810" y="20" width="60" height="30" as="geometry" />
        </mxCell>
        <mxCell id="h-7I3PyZhxbUlpf5mPL_-5" value="&lt;b&gt;&lt;span&gt;&lt;font style=&quot;font-size: 25px;&quot;&gt;Shapes&lt;/font&gt;&lt;/span&gt;&lt;/b&gt;" style="text;html=1;strokeColor=none;fillColor=none;align=left;verticalAlign=middle;whiteSpace=wrap;rounded=0;fontStyle=4" vertex="1" parent="1">
          <mxGeometry x="810" y="70" width="60" height="30" as="geometry" />
        </mxCell>
        <mxCell id="h-7I3PyZhxbUlpf5mPL_-6" value="Process start&lt;br&gt;and end" style="rounded=1;whiteSpace=wrap;html=1;" vertex="1" parent="1">
          <mxGeometry x="810" y="120" width="120" height="60" as="geometry" />
        </mxCell>
        <mxCell id="h-7I3PyZhxbUlpf5mPL_-7" value="Process" style="rounded=0;whiteSpace=wrap;html=1;" vertex="1" parent="1">
          <mxGeometry x="810" y="210" width="120" height="60" as="geometry" />
        </mxCell>
        <mxCell id="h-7I3PyZhxbUlpf5mPL_-8" value="Data / input" style="shape=parallelogram;perimeter=parallelogramPerimeter;whiteSpace=wrap;html=1;fixedSize=1;" vertex="1" parent="1">
          <mxGeometry x="810" y="290" width="120" height="60" as="geometry" />
        </mxCell>
        <mxCell id="h-7I3PyZhxbUlpf5mPL_-9" value="Document / file" style="shape=document;whiteSpace=wrap;html=1;boundedLbl=1;" vertex="1" parent="1">
          <mxGeometry x="810" y="369" width="120" height="80" as="geometry" />
        </mxCell>
        <mxCell id="h-7I3PyZhxbUlpf5mPL_-10" value="Decision" style="rhombus;whiteSpace=wrap;html=1;" vertex="1" parent="1">
          <mxGeometry x="810" y="460" width="80" height="80" as="geometry" />
        </mxCell>
        <mxCell id="h-7I3PyZhxbUlpf5mPL_-11" value="&lt;b&gt;&lt;span&gt;&lt;font style=&quot;font-size: 25px;&quot;&gt;Colours&lt;/font&gt;&lt;/span&gt;&lt;/b&gt;" style="text;html=1;strokeColor=none;fillColor=none;align=left;verticalAlign=middle;whiteSpace=wrap;rounded=0;fontStyle=4" vertex="1" parent="1">
          <mxGeometry x="990" y="70" width="60" height="30" as="geometry" />
        </mxCell>
        <mxCell id="h-7I3PyZhxbUlpf5mPL_-12" value="User login / registration feature" style="rounded=0;whiteSpace=wrap;html=1;fillColor=#dae8fc;strokeColor=#6c8ebf;" vertex="1" parent="1">
          <mxGeometry x="990" y="120" width="120" height="60" as="geometry" />
        </mxCell>
        <mxCell id="h-7I3PyZhxbUlpf5mPL_-13" value="Main menu" style="rounded=0;whiteSpace=wrap;html=1;fillColor=#e1d5e7;strokeColor=#9673a6;" vertex="1" parent="1">
          <mxGeometry x="990" y="210" width="120" height="60" as="geometry" />
        </mxCell>
        <mxCell id="h-7I3PyZhxbUlpf5mPL_-14" value="Quiz feature" style="rounded=0;whiteSpace=wrap;html=1;fillColor=#d5e8d4;strokeColor=#82b366;" vertex="1" parent="1">
          <mxGeometry x="990" y="301" width="120" height="60" as="geometry" />
        </mxCell>
        <mxCell id="Zx91uQ-LiGVZXYL8dxc4-1" value="Previous Results feature" style="rounded=0;whiteSpace=wrap;html=1;fillColor=#ffe6cc;strokeColor=#d79b00;" vertex="1" parent="1">
          <mxGeometry x="990" y="389" width="120" height="60" as="geometry" />
        </mxCell>
        <mxCell id="Zx91uQ-LiGVZXYL8dxc4-2" value="Certified Players feature" style="rounded=0;whiteSpace=wrap;html=1;fillColor=#fff2cc;strokeColor=#d6b656;" vertex="1" parent="1">
          <mxGeometry x="990" y="470" width="120" height="60" as="geometry" />
        </mxCell>
        <mxCell id="Zx91uQ-LiGVZXYL8dxc4-3" value="Exit workflows" style="rounded=0;whiteSpace=wrap;html=1;fillColor=#f8cecc;strokeColor=#b85450;" vertex="1" parent="1">
          <mxGeometry x="990" y="560" width="120" height="60" as="geometry" />
        </mxCell>
      </root>
    </mxGraphModel>
  </diagram>
  <diagram id="BGkA9TOyJ9o1093J2l_Q" name="Page-2">
    <mxGraphModel dx="954" dy="525" grid="1" gridSize="10" guides="1" tooltips="1" connect="1" arrows="1" fold="1" page="1" pageScale="1" pageWidth="1300" pageHeight="800" math="0" shadow="0">
      <root>
        <mxCell id="0" />
        <mxCell id="1" parent="0" />
        <mxCell id="iNRsNcm4U9BgeWiklLCd-1" value="" style="edgeStyle=orthogonalEdgeStyle;rounded=0;orthogonalLoop=1;jettySize=auto;html=1;" edge="1" parent="1" source="iNRsNcm4U9BgeWiklLCd-2" target="iNRsNcm4U9BgeWiklLCd-5">
          <mxGeometry relative="1" as="geometry" />
        </mxCell>
        <mxCell id="iNRsNcm4U9BgeWiklLCd-2" value="Rules quiz begins" style="whiteSpace=wrap;html=1;fillColor=#d5e8d4;strokeColor=#82b366;" vertex="1" parent="1">
          <mxGeometry x="470" y="150" width="120" height="60" as="geometry" />
        </mxCell>
        <mxCell id="iNRsNcm4U9BgeWiklLCd-4" value="No" style="edgeStyle=orthogonalEdgeStyle;rounded=0;orthogonalLoop=1;jettySize=auto;html=1;" edge="1" parent="1" source="iNRsNcm4U9BgeWiklLCd-5" target="iNRsNcm4U9BgeWiklLCd-10">
          <mxGeometry relative="1" as="geometry" />
        </mxCell>
        <mxCell id="9oDH4UpEmG7fkb4pxVb9-2" value="Yes" style="edgeStyle=orthogonalEdgeStyle;rounded=0;orthogonalLoop=1;jettySize=auto;html=1;exitX=0;exitY=1;exitDx=0;exitDy=0;entryX=1;entryY=0.5;entryDx=0;entryDy=0;" edge="1" parent="1" source="iNRsNcm4U9BgeWiklLCd-5" target="jyceMBeJfm9rI0iuT7sv-2">
          <mxGeometry relative="1" as="geometry" />
        </mxCell>
        <mxCell id="iNRsNcm4U9BgeWiklLCd-5" value="Have 20 questions been asked?" style="rhombus;whiteSpace=wrap;html=1;fillColor=#d5e8d4;strokeColor=#82b366;spacingLeft=6;spacingBottom=6;spacingTop=6;spacingRight=6;fontSize=9;" vertex="1" parent="1">
          <mxGeometry x="750" y="140" width="80" height="80" as="geometry" />
        </mxCell>
        <mxCell id="iNRsNcm4U9BgeWiklLCd-6" value="Yes" style="edgeStyle=orthogonalEdgeStyle;rounded=0;orthogonalLoop=1;jettySize=auto;html=1;" edge="1" parent="1" source="iNRsNcm4U9BgeWiklLCd-8" target="iNRsNcm4U9BgeWiklLCd-23">
          <mxGeometry relative="1" as="geometry" />
        </mxCell>
        <mxCell id="iNRsNcm4U9BgeWiklLCd-7" value="" style="edgeStyle=orthogonalEdgeStyle;rounded=0;orthogonalLoop=1;jettySize=auto;html=1;" edge="1" parent="1" source="iNRsNcm4U9BgeWiklLCd-8" target="iNRsNcm4U9BgeWiklLCd-25">
          <mxGeometry relative="1" as="geometry" />
        </mxCell>
        <mxCell id="iNRsNcm4U9BgeWiklLCd-8" value="Did the user pass the quiz?" style="rhombus;whiteSpace=wrap;html=1;fontSize=9;fillColor=#d5e8d4;strokeColor=#82b366;spacingLeft=6;spacingBottom=6;spacingTop=6;spacingRight=6;" vertex="1" parent="1">
          <mxGeometry x="478" y="340" width="80" height="80" as="geometry" />
        </mxCell>
        <mxCell id="iNRsNcm4U9BgeWiklLCd-9" value="" style="edgeStyle=orthogonalEdgeStyle;rounded=0;orthogonalLoop=1;jettySize=auto;html=1;" edge="1" parent="1" source="iNRsNcm4U9BgeWiklLCd-10" target="iNRsNcm4U9BgeWiklLCd-12">
          <mxGeometry relative="1" as="geometry" />
        </mxCell>
        <mxCell id="iNRsNcm4U9BgeWiklLCd-10" value="Source a random question from Questions file" style="shape=document;whiteSpace=wrap;html=1;boundedLbl=1;fontSize=9;fillColor=#d5e8d4;strokeColor=#82b366;spacingLeft=6;spacingBottom=6;spacingTop=6;spacingRight=6;" vertex="1" parent="1">
          <mxGeometry x="730" y="350" width="120" height="80" as="geometry" />
        </mxCell>
        <mxCell id="iNRsNcm4U9BgeWiklLCd-11" value="" style="edgeStyle=orthogonalEdgeStyle;rounded=0;orthogonalLoop=1;jettySize=auto;html=1;" edge="1" parent="1" source="iNRsNcm4U9BgeWiklLCd-12" target="iNRsNcm4U9BgeWiklLCd-14">
          <mxGeometry relative="1" as="geometry" />
        </mxCell>
        <mxCell id="iNRsNcm4U9BgeWiklLCd-12" value="Display the question to the user" style="whiteSpace=wrap;html=1;fontSize=9;fillColor=#d5e8d4;strokeColor=#82b366;spacingLeft=6;spacingBottom=6;spacingTop=6;spacingRight=6;" vertex="1" parent="1">
          <mxGeometry x="930" y="360" width="120" height="60" as="geometry" />
        </mxCell>
        <mxCell id="JWAl2_2phyXNgZZRoxme-2" value="" style="edgeStyle=orthogonalEdgeStyle;rounded=0;orthogonalLoop=1;jettySize=auto;html=1;" edge="1" parent="1" source="iNRsNcm4U9BgeWiklLCd-14" target="JWAl2_2phyXNgZZRoxme-1">
          <mxGeometry relative="1" as="geometry" />
        </mxCell>
        <mxCell id="iXqvKr_5c-KrfBRFy__K-3" value="" style="edgeStyle=orthogonalEdgeStyle;rounded=0;orthogonalLoop=1;jettySize=auto;html=1;" edge="1" parent="1" source="iNRsNcm4U9BgeWiklLCd-14" target="iXqvKr_5c-KrfBRFy__K-1">
          <mxGeometry relative="1" as="geometry" />
        </mxCell>
        <mxCell id="iNRsNcm4U9BgeWiklLCd-14" value="User enters their multi-choice answer" style="shape=parallelogram;perimeter=parallelogramPerimeter;whiteSpace=wrap;html=1;fixedSize=1;fontSize=9;fillColor=#d5e8d4;strokeColor=#82b366;spacingLeft=6;spacingBottom=6;spacingTop=6;spacingRight=6;" vertex="1" parent="1">
          <mxGeometry x="1130" y="360" width="120" height="60" as="geometry" />
        </mxCell>
        <mxCell id="iNRsNcm4U9BgeWiklLCd-15" value="Yes" style="edgeStyle=orthogonalEdgeStyle;rounded=0;orthogonalLoop=1;jettySize=auto;html=1;" edge="1" parent="1" source="iNRsNcm4U9BgeWiklLCd-17" target="iNRsNcm4U9BgeWiklLCd-19">
          <mxGeometry relative="1" as="geometry" />
        </mxCell>
        <mxCell id="iNRsNcm4U9BgeWiklLCd-16" value="No" style="edgeStyle=orthogonalEdgeStyle;rounded=0;orthogonalLoop=1;jettySize=auto;html=1;" edge="1" parent="1" source="iNRsNcm4U9BgeWiklLCd-17" target="iNRsNcm4U9BgeWiklLCd-21">
          <mxGeometry relative="1" as="geometry" />
        </mxCell>
        <mxCell id="iNRsNcm4U9BgeWiklLCd-17" value="Is the answer correct?" style="rhombus;whiteSpace=wrap;html=1;fontSize=9;fillColor=#d5e8d4;strokeColor=#82b366;spacingLeft=6;spacingBottom=6;spacingTop=6;spacingRight=6;" vertex="1" parent="1">
          <mxGeometry x="1150" y="140" width="80" height="80" as="geometry" />
        </mxCell>
        <mxCell id="iNRsNcm4U9BgeWiklLCd-18" style="edgeStyle=orthogonalEdgeStyle;rounded=0;orthogonalLoop=1;jettySize=auto;html=1;entryX=0.5;entryY=0;entryDx=0;entryDy=0;" edge="1" parent="1" source="iNRsNcm4U9BgeWiklLCd-19" target="iNRsNcm4U9BgeWiklLCd-21">
          <mxGeometry relative="1" as="geometry" />
        </mxCell>
        <mxCell id="iNRsNcm4U9BgeWiklLCd-19" value="Update score count" style="whiteSpace=wrap;html=1;fontSize=9;fillColor=#d5e8d4;strokeColor=#82b366;spacingLeft=6;spacingBottom=6;spacingTop=6;spacingRight=6;" vertex="1" parent="1">
          <mxGeometry x="1130" y="20" width="120" height="60" as="geometry" />
        </mxCell>
        <mxCell id="iNRsNcm4U9BgeWiklLCd-20" value="" style="edgeStyle=orthogonalEdgeStyle;rounded=0;orthogonalLoop=1;jettySize=auto;html=1;" edge="1" parent="1" source="iNRsNcm4U9BgeWiklLCd-21" target="iNRsNcm4U9BgeWiklLCd-5">
          <mxGeometry relative="1" as="geometry" />
        </mxCell>
        <mxCell id="iNRsNcm4U9BgeWiklLCd-21" value="Continue to next loop" style="whiteSpace=wrap;html=1;fontSize=9;fillColor=#d5e8d4;strokeColor=#82b366;spacingLeft=6;spacingBottom=6;spacingTop=6;spacingRight=6;" vertex="1" parent="1">
          <mxGeometry x="890" y="70" width="120" height="60" as="geometry" />
        </mxCell>
        <mxCell id="iNRsNcm4U9BgeWiklLCd-22" value="" style="edgeStyle=orthogonalEdgeStyle;rounded=0;orthogonalLoop=1;jettySize=auto;html=1;" edge="1" parent="1" source="iNRsNcm4U9BgeWiklLCd-23" target="iNRsNcm4U9BgeWiklLCd-30">
          <mxGeometry relative="1" as="geometry" />
        </mxCell>
        <mxCell id="iNRsNcm4U9BgeWiklLCd-23" value="Write their Player ID and the date to the Certified Players file" style="shape=document;whiteSpace=wrap;html=1;boundedLbl=1;fillColor=#d5e8d4;strokeColor=#82b366;" vertex="1" parent="1">
          <mxGeometry x="458" y="481" width="120" height="80" as="geometry" />
        </mxCell>
        <mxCell id="iNRsNcm4U9BgeWiklLCd-24" value="" style="edgeStyle=orthogonalEdgeStyle;rounded=0;orthogonalLoop=1;jettySize=auto;html=1;" edge="1" parent="1" source="iNRsNcm4U9BgeWiklLCd-25" target="iNRsNcm4U9BgeWiklLCd-27">
          <mxGeometry relative="1" as="geometry" />
        </mxCell>
        <mxCell id="iNRsNcm4U9BgeWiklLCd-25" value="Display score on screen and fail message" style="whiteSpace=wrap;html=1;fontSize=9;fillColor=#d5e8d4;strokeColor=#82b366;spacingLeft=6;spacingBottom=6;spacingTop=6;spacingRight=6;" vertex="1" parent="1">
          <mxGeometry x="268" y="350" width="120" height="60" as="geometry" />
        </mxCell>
        <mxCell id="iNRsNcm4U9BgeWiklLCd-26" value="" style="edgeStyle=orthogonalEdgeStyle;rounded=0;orthogonalLoop=1;jettySize=auto;html=1;" edge="1" parent="1" source="iNRsNcm4U9BgeWiklLCd-27" target="iNRsNcm4U9BgeWiklLCd-29">
          <mxGeometry relative="1" as="geometry" />
        </mxCell>
        <mxCell id="iNRsNcm4U9BgeWiklLCd-27" value="Ask if user wants to try again" style="shape=parallelogram;perimeter=parallelogramPerimeter;whiteSpace=wrap;html=1;fixedSize=1;fillColor=#d5e8d4;strokeColor=#82b366;spacingTop=6;spacingLeft=6;spacingBottom=6;spacingRight=6;fontSize=9;" vertex="1" parent="1">
          <mxGeometry x="268" y="257" width="120" height="60" as="geometry" />
        </mxCell>
        <mxCell id="iNRsNcm4U9BgeWiklLCd-28" value="Yes" style="edgeStyle=orthogonalEdgeStyle;rounded=0;orthogonalLoop=1;jettySize=auto;html=1;" edge="1" parent="1" source="iNRsNcm4U9BgeWiklLCd-29" target="iNRsNcm4U9BgeWiklLCd-2">
          <mxGeometry relative="1" as="geometry" />
        </mxCell>
        <mxCell id="CWz6FQehwdmRUTl-jMKs-2" value="No" style="edgeStyle=orthogonalEdgeStyle;rounded=0;orthogonalLoop=1;jettySize=auto;html=1;" edge="1" parent="1" source="iNRsNcm4U9BgeWiklLCd-29">
          <mxGeometry x="-0.8182" relative="1" as="geometry">
            <mxPoint x="180" y="90" as="targetPoint" />
            <mxPoint as="offset" />
          </mxGeometry>
        </mxCell>
        <mxCell id="iNRsNcm4U9BgeWiklLCd-29" value="Try again?" style="rhombus;whiteSpace=wrap;html=1;fontSize=9;fillColor=#d5e8d4;strokeColor=#82b366;spacingTop=6;spacingLeft=6;spacingBottom=6;spacingRight=6;" vertex="1" parent="1">
          <mxGeometry x="288" y="140" width="80" height="80" as="geometry" />
        </mxCell>
        <mxCell id="iNRsNcm4U9BgeWiklLCd-34" style="edgeStyle=orthogonalEdgeStyle;rounded=0;orthogonalLoop=1;jettySize=auto;html=1;entryX=1;entryY=0.5;entryDx=0;entryDy=0;" edge="1" parent="1" source="iNRsNcm4U9BgeWiklLCd-30" target="iNRsNcm4U9BgeWiklLCd-32">
          <mxGeometry relative="1" as="geometry" />
        </mxCell>
        <mxCell id="iNRsNcm4U9BgeWiklLCd-30" value="Display score on screen and success message" style="whiteSpace=wrap;html=1;fillColor=#d5e8d4;strokeColor=#82b366;" vertex="1" parent="1">
          <mxGeometry x="258" y="491" width="120" height="60" as="geometry" />
        </mxCell>
        <mxCell id="iNRsNcm4U9BgeWiklLCd-31" value="" style="edgeStyle=orthogonalEdgeStyle;rounded=0;orthogonalLoop=1;jettySize=auto;html=1;" edge="1" parent="1" source="iNRsNcm4U9BgeWiklLCd-32" target="iNRsNcm4U9BgeWiklLCd-33">
          <mxGeometry relative="1" as="geometry" />
        </mxCell>
        <mxCell id="iNRsNcm4U9BgeWiklLCd-32" value="Ask user if they want to return to main menu" style="shape=parallelogram;perimeter=parallelogramPerimeter;whiteSpace=wrap;html=1;fixedSize=1;spacingTop=6;spacingLeft=6;spacingBottom=6;fontSize=9;spacingRight=6;fillColor=#d5e8d4;strokeColor=#82b366;" vertex="1" parent="1">
          <mxGeometry x="90" y="491" width="120" height="60" as="geometry" />
        </mxCell>
        <mxCell id="qQDD9l0NE13wE4bW_pAn-7" value="Yes" style="edgeStyle=orthogonalEdgeStyle;rounded=0;orthogonalLoop=1;jettySize=auto;html=1;" edge="1" parent="1" source="iNRsNcm4U9BgeWiklLCd-33">
          <mxGeometry x="-0.753" relative="1" as="geometry">
            <mxPoint x="150" y="90" as="targetPoint" />
            <mxPoint as="offset" />
          </mxGeometry>
        </mxCell>
        <mxCell id="GMSk7vobf5ItyHXXukdI-1" value="No" style="edgeStyle=orthogonalEdgeStyle;rounded=0;orthogonalLoop=1;jettySize=auto;html=1;entryX=0.5;entryY=1;entryDx=0;entryDy=0;fillColor=#f8cecc;strokeColor=#b85450;" edge="1" parent="1" source="iNRsNcm4U9BgeWiklLCd-33" target="CWz6FQehwdmRUTl-jMKs-1">
          <mxGeometry x="-0.7674" y="-1" relative="1" as="geometry">
            <mxPoint as="offset" />
          </mxGeometry>
        </mxCell>
        <mxCell id="iNRsNcm4U9BgeWiklLCd-33" value="Return to main menu?" style="rhombus;whiteSpace=wrap;html=1;fontSize=9;fillColor=#d5e8d4;strokeColor=#82b366;spacingTop=6;spacingLeft=6;spacingBottom=6;spacingRight=6;" vertex="1" parent="1">
          <mxGeometry x="110" y="341" width="80" height="80" as="geometry" />
        </mxCell>
        <mxCell id="qQDD9l0NE13wE4bW_pAn-3" value="" style="edgeStyle=orthogonalEdgeStyle;rounded=0;orthogonalLoop=1;jettySize=auto;html=1;" edge="1" parent="1" source="qQDD9l0NE13wE4bW_pAn-1" target="qQDD9l0NE13wE4bW_pAn-2">
          <mxGeometry relative="1" as="geometry" />
        </mxCell>
        <mxCell id="qQDD9l0NE13wE4bW_pAn-1" value="Display main menu to user" style="whiteSpace=wrap;html=1;fontSize=9;fillColor=#e1d5e7;strokeColor=#9673a6;spacingLeft=6;spacingBottom=6;spacingRight=6;spacingTop=6;fontStyle=1" vertex="1" parent="1">
          <mxGeometry x="90" y="27" width="120" height="60" as="geometry" />
        </mxCell>
        <mxCell id="qQDD9l0NE13wE4bW_pAn-5" value="" style="edgeStyle=orthogonalEdgeStyle;rounded=0;orthogonalLoop=1;jettySize=auto;html=1;" edge="1" parent="1" source="qQDD9l0NE13wE4bW_pAn-2" target="qQDD9l0NE13wE4bW_pAn-4">
          <mxGeometry relative="1" as="geometry" />
        </mxCell>
        <mxCell id="qQDD9l0NE13wE4bW_pAn-2" value="User selects option from main menu" style="shape=parallelogram;perimeter=parallelogramPerimeter;whiteSpace=wrap;html=1;fixedSize=1;fontSize=9;fillColor=#e1d5e7;strokeColor=#9673a6;spacingLeft=6;spacingBottom=6;spacingRight=6;spacingTop=6;" vertex="1" parent="1">
          <mxGeometry x="278" y="27" width="122" height="60" as="geometry" />
        </mxCell>
        <mxCell id="qQDD9l0NE13wE4bW_pAn-6" value="Yes" style="edgeStyle=orthogonalEdgeStyle;rounded=0;orthogonalLoop=1;jettySize=auto;html=1;" edge="1" parent="1" source="qQDD9l0NE13wE4bW_pAn-4" target="iNRsNcm4U9BgeWiklLCd-2">
          <mxGeometry relative="1" as="geometry" />
        </mxCell>
        <mxCell id="qQDD9l0NE13wE4bW_pAn-4" value="Option 1 selected?" style="rhombus;whiteSpace=wrap;html=1;fontSize=9;fillColor=#e1d5e7;strokeColor=#9673a6;spacingLeft=6;spacingBottom=6;spacingRight=6;spacingTop=6;" vertex="1" parent="1">
          <mxGeometry x="490" y="17" width="80" height="80" as="geometry" />
        </mxCell>
        <mxCell id="CWz6FQehwdmRUTl-jMKs-1" value="Thank you message displayed, application exits gracefully" style="rounded=1;whiteSpace=wrap;html=1;fillColor=#f8cecc;strokeColor=#b85450;" vertex="1" parent="1">
          <mxGeometry x="20" y="160" width="80" height="99" as="geometry" />
        </mxCell>
        <mxCell id="JWAl2_2phyXNgZZRoxme-4" value="" style="edgeStyle=orthogonalEdgeStyle;rounded=0;orthogonalLoop=1;jettySize=auto;html=1;" edge="1" parent="1" source="JWAl2_2phyXNgZZRoxme-1" target="JWAl2_2phyXNgZZRoxme-3">
          <mxGeometry relative="1" as="geometry" />
        </mxCell>
        <mxCell id="JWAl2_2phyXNgZZRoxme-1" value="User enters quit prompt" style="rounded=0;whiteSpace=wrap;html=1;fillColor=#f8cecc;strokeColor=#b85450;" vertex="1" parent="1">
          <mxGeometry x="1130" y="543" width="120" height="60" as="geometry" />
        </mxCell>
        <mxCell id="JWAl2_2phyXNgZZRoxme-6" value="" style="edgeStyle=orthogonalEdgeStyle;rounded=0;orthogonalLoop=1;jettySize=auto;html=1;" edge="1" parent="1" source="JWAl2_2phyXNgZZRoxme-3" target="JWAl2_2phyXNgZZRoxme-5">
          <mxGeometry relative="1" as="geometry" />
        </mxCell>
        <mxCell id="JWAl2_2phyXNgZZRoxme-3" value="Warning message displayed that progress will not be saved" style="whiteSpace=wrap;html=1;fillColor=#f8cecc;strokeColor=#b85450;rounded=0;" vertex="1" parent="1">
          <mxGeometry x="1130" y="672" width="120" height="60" as="geometry" />
        </mxCell>
        <mxCell id="JWAl2_2phyXNgZZRoxme-8" value="" style="edgeStyle=orthogonalEdgeStyle;rounded=0;orthogonalLoop=1;jettySize=auto;html=1;" edge="1" parent="1" target="JWAl2_2phyXNgZZRoxme-7">
          <mxGeometry relative="1" as="geometry">
            <mxPoint x="990" y="670" as="sourcePoint" />
          </mxGeometry>
        </mxCell>
        <mxCell id="JWAl2_2phyXNgZZRoxme-5" value="User asked to confirm they want to quit" style="shape=parallelogram;perimeter=parallelogramPerimeter;whiteSpace=wrap;html=1;fixedSize=1;fillColor=#f8cecc;strokeColor=#b85450;rounded=0;fontSize=10;spacingLeft=6;spacingBottom=6;spacingRight=6;spacingTop=6;" vertex="1" parent="1">
          <mxGeometry x="930" y="672" width="120" height="60" as="geometry" />
        </mxCell>
        <mxCell id="JWAl2_2phyXNgZZRoxme-10" value="No" style="edgeStyle=orthogonalEdgeStyle;rounded=0;orthogonalLoop=1;jettySize=auto;html=1;" edge="1" parent="1" source="JWAl2_2phyXNgZZRoxme-7" target="iNRsNcm4U9BgeWiklLCd-12">
          <mxGeometry relative="1" as="geometry" />
        </mxCell>
        <mxCell id="JWAl2_2phyXNgZZRoxme-11" value="Yes" style="edgeStyle=orthogonalEdgeStyle;rounded=0;orthogonalLoop=1;jettySize=auto;html=1;fillColor=#f8cecc;strokeColor=#b85450;entryX=0.5;entryY=1;entryDx=0;entryDy=0;" edge="1" parent="1" source="JWAl2_2phyXNgZZRoxme-7" target="CWz6FQehwdmRUTl-jMKs-1">
          <mxGeometry x="-0.9495" y="-1" relative="1" as="geometry">
            <mxPoint x="60" y="270" as="targetPoint" />
            <Array as="points">
              <mxPoint x="60" y="573" />
            </Array>
            <mxPoint as="offset" />
          </mxGeometry>
        </mxCell>
        <mxCell id="JWAl2_2phyXNgZZRoxme-7" value="Quit y/n?" style="rhombus;whiteSpace=wrap;html=1;fontSize=10;fillColor=#f8cecc;strokeColor=#b85450;rounded=0;spacingLeft=6;spacingBottom=6;spacingRight=6;spacingTop=6;" vertex="1" parent="1">
          <mxGeometry x="950" y="533" width="80" height="80" as="geometry" />
        </mxCell>
        <mxCell id="9oDH4UpEmG7fkb4pxVb9-10" value="Yes" style="edgeStyle=orthogonalEdgeStyle;rounded=0;orthogonalLoop=1;jettySize=auto;html=1;exitX=0;exitY=0.5;exitDx=0;exitDy=0;entryX=1;entryY=0.25;entryDx=0;entryDy=0;" edge="1" parent="1" source="jyceMBeJfm9rI0iuT7sv-2" target="9oDH4UpEmG7fkb4pxVb9-3">
          <mxGeometry x="-0.4048" relative="1" as="geometry">
            <mxPoint as="offset" />
          </mxGeometry>
        </mxCell>
        <mxCell id="9oDH4UpEmG7fkb4pxVb9-11" value="No" style="edgeStyle=orthogonalEdgeStyle;rounded=0;orthogonalLoop=1;jettySize=auto;html=1;" edge="1" parent="1" source="jyceMBeJfm9rI0iuT7sv-2" target="9oDH4UpEmG7fkb4pxVb9-8">
          <mxGeometry relative="1" as="geometry">
            <Array as="points">
              <mxPoint x="670" y="330" />
              <mxPoint x="670" y="330" />
            </Array>
          </mxGeometry>
        </mxCell>
        <mxCell id="jyceMBeJfm9rI0iuT7sv-2" value="Does Previous Results file exist?" style="rhombus;whiteSpace=wrap;html=1;fillColor=#d5e8d4;strokeColor=#82b366;fontSize=9;spacingLeft=6;spacingTop=6;spacingBottom=6;spacingRight=6;" vertex="1" parent="1">
          <mxGeometry x="630" y="220" width="80" height="80" as="geometry" />
        </mxCell>
        <mxCell id="9oDH4UpEmG7fkb4pxVb9-7" value="" style="edgeStyle=orthogonalEdgeStyle;rounded=0;orthogonalLoop=1;jettySize=auto;html=1;" edge="1" parent="1" source="9oDH4UpEmG7fkb4pxVb9-3" target="iNRsNcm4U9BgeWiklLCd-8">
          <mxGeometry relative="1" as="geometry" />
        </mxCell>
        <mxCell id="9oDH4UpEmG7fkb4pxVb9-3" value="Add results to Previous Results file" style="shape=document;whiteSpace=wrap;html=1;boundedLbl=1;fontSize=10;fillColor=#d5e8d4;strokeColor=#82b366;" vertex="1" parent="1">
          <mxGeometry x="473" y="244" width="90" height="63" as="geometry" />
        </mxCell>
        <mxCell id="9oDH4UpEmG7fkb4pxVb9-9" style="edgeStyle=orthogonalEdgeStyle;rounded=0;orthogonalLoop=1;jettySize=auto;html=1;exitX=0.25;exitY=0;exitDx=0;exitDy=0;entryX=1;entryY=0.75;entryDx=0;entryDy=0;" edge="1" parent="1" source="9oDH4UpEmG7fkb4pxVb9-8" target="9oDH4UpEmG7fkb4pxVb9-3">
          <mxGeometry relative="1" as="geometry" />
        </mxCell>
        <mxCell id="9oDH4UpEmG7fkb4pxVb9-8" value="Create Previous Results file" style="shape=document;whiteSpace=wrap;html=1;boundedLbl=1;fillColor=#d5e8d4;strokeColor=#82b366;" vertex="1" parent="1">
          <mxGeometry x="600" y="342" width="90" height="50" as="geometry" />
        </mxCell>
        <mxCell id="iXqvKr_5c-KrfBRFy__K-2" value="Yes" style="edgeStyle=orthogonalEdgeStyle;rounded=0;orthogonalLoop=1;jettySize=auto;html=1;" edge="1" parent="1" source="iXqvKr_5c-KrfBRFy__K-1" target="iNRsNcm4U9BgeWiklLCd-17">
          <mxGeometry relative="1" as="geometry" />
        </mxCell>
        <mxCell id="iXqvKr_5c-KrfBRFy__K-5" value="No" style="edgeStyle=orthogonalEdgeStyle;rounded=0;orthogonalLoop=1;jettySize=auto;html=1;" edge="1" parent="1" source="iXqvKr_5c-KrfBRFy__K-1" target="iXqvKr_5c-KrfBRFy__K-4">
          <mxGeometry relative="1" as="geometry" />
        </mxCell>
        <mxCell id="iXqvKr_5c-KrfBRFy__K-1" value="Is the input valid?" style="rhombus;whiteSpace=wrap;html=1;fontSize=9;fillColor=#d5e8d4;strokeColor=#82b366;spacingLeft=6;spacingBottom=6;spacingTop=6;spacingRight=6;" vertex="1" parent="1">
          <mxGeometry x="1150" y="259" width="80" height="80" as="geometry" />
        </mxCell>
        <mxCell id="iXqvKr_5c-KrfBRFy__K-9" value="" style="edgeStyle=orthogonalEdgeStyle;rounded=0;orthogonalLoop=1;jettySize=auto;html=1;" edge="1" parent="1" source="iXqvKr_5c-KrfBRFy__K-4" target="iNRsNcm4U9BgeWiklLCd-12">
          <mxGeometry relative="1" as="geometry" />
        </mxCell>
        <mxCell id="iXqvKr_5c-KrfBRFy__K-4" value="Invalid input, ask user to try again" style="whiteSpace=wrap;html=1;fontSize=9;fillColor=#d5e8d4;strokeColor=#82b366;spacingLeft=6;spacingBottom=6;spacingTop=6;spacingRight=6;" vertex="1" parent="1">
          <mxGeometry x="930" y="269" width="120" height="60" as="geometry" />
        </mxCell>
      </root>
    </mxGraphModel>
  </diagram>
</mxfile>
